<svg width="57" height="70" viewBox="0 0 57 70" fill="none" xmlns="http://www.w3.org/2000/svg">
<g id="Book Icon">
<path id="Vector" d="M39.5 50H18.5C17.5717 50 16.6815 50.3687 16.0251 51.0251C15.3687 51.6815 15 52.5717 15 53.5C15 54.4283 15.3687 55.3185 16.0251 55.9749C16.6815 56.6313 17.5717 57 18.5 57H39.5C40.4283 57 41.3185 56.6313 41.9749 55.9749C42.6313 55.3185 43 54.4283 43 53.5C43 52.5717 42.6313 51.6815 41.9749 51.0251C41.3185 50.3687 40.4283 50 39.5 50Z" fill="#3B6F3E"/>
<path id="Vector_2" d="M18.6 42H29.4C30.3548 42 31.2705 41.6839 31.9456 41.1213C32.6207 40.5587 33 39.7956 33 39C33 38.2044 32.6207 37.4413 31.9456 36.8787C31.2705 36.3161 30.3548 36 29.4 36H18.6C17.6452 36 16.7295 36.3161 16.0544 36.8787C15.3793 37.4413 15 38.2044 15 39C15 39.7956 15.3793 40.5587 16.0544 41.1213C16.7295 41.6839 17.6452 42 18.6 42Z" fill="#3B6F3E"/>
<path id="Vector_3" d="M56.0737 22.8387L36.6937 2.1391C36.3607 1.78171 35.9541 1.49579 35.5 1.29971C35.046 1.10364 34.5546 1.00176 34.0575 1.00062H9.12C7.93636 0.986948 6.76153 1.1992 5.6626 1.62525C4.56366 2.05131 3.56216 2.68282 2.71527 3.48373C1.86839 4.28463 1.1927 5.23925 0.726815 6.29306C0.260925 7.34686 0.0139521 8.47922 0 9.62547V61.3745C0.0139521 62.5208 0.260925 63.6531 0.726815 64.7069C1.1927 65.7607 1.86839 66.7154 2.71527 67.5163C3.56216 68.3172 4.56366 68.9487 5.6626 69.3747C6.76153 69.8008 7.93636 70.0131 9.12 69.9994H47.88C49.0636 70.0131 50.2385 69.8008 51.3374 69.3747C52.4363 68.9487 53.4378 68.3172 54.2847 67.5163C55.1316 66.7154 55.8073 65.7607 56.2732 64.7069C56.7391 63.6531 56.986 62.5208 57 61.3745V25.1502C56.9977 24.2952 56.6676 23.4714 56.0737 22.8387ZM35.625 11.3504L45.3862 21.7002H38.2612C37.8882 21.6784 37.5233 21.5849 37.188 21.4251C36.8527 21.2652 36.5536 21.0423 36.3082 20.7693C36.0628 20.4964 35.876 20.1788 35.7587 19.8351C35.6414 19.4915 35.5959 19.1286 35.625 18.7678V11.3504ZM47.88 63.0995H9.12C8.87196 63.1135 8.62351 63.0799 8.38889 63.0007C8.15427 62.9216 7.93809 62.7983 7.75275 62.6381C7.56742 62.4778 7.41656 62.2837 7.30884 62.0669C7.20112 61.8501 7.13864 61.6148 7.125 61.3745V9.62547C7.13864 9.38522 7.20112 9.14994 7.30884 8.93312C7.41656 8.7163 7.56742 8.5222 7.75275 8.36195C7.93809 8.2017 8.15427 8.07845 8.38889 7.99926C8.62351 7.92008 8.87196 7.88651 9.12 7.9005H28.5V18.7678C28.4425 21.3091 29.4254 23.7693 31.2341 25.6113C33.0428 27.4534 35.5306 28.5278 38.1544 28.6001H49.875V61.3745C49.8614 61.6148 49.7989 61.8501 49.6912 62.0669C49.5834 62.2837 49.4326 62.4778 49.2472 62.6381C49.0619 62.7983 48.8457 62.9216 48.6111 63.0007C48.3765 63.0799 48.128 63.1135 47.88 63.0995Z" fill="#3B6F3E"/>
</g>
</svg>
