<svg width="69" height="75" viewBox="0 0 69 75" fill="none" xmlns="http://www.w3.org/2000/svg">
<g id="Buy Icon">
<path id="Vector" d="M67.9995 25.8469C67.3928 24.8107 66.5239 23.9472 65.4777 23.3406C64.4315 22.734 63.2436 22.405 62.03 22.3857H17.0827L15.046 14.5633C14.8403 13.8082 14.3812 13.144 13.7435 12.6789C13.1059 12.2139 12.3273 11.9753 11.5345 12.002H4.51151C3.5802 12.002 2.68703 12.3667 2.0285 13.0158C1.36996 13.6649 1 14.5453 1 15.4633C1 16.3812 1.36996 17.2616 2.0285 17.9107C2.68703 18.5598 3.5802 18.9245 4.51151 18.9245H8.86577L18.5575 54.4367C18.7633 55.1918 19.2224 55.856 19.86 56.3211C20.4977 56.7861 21.2763 57.0247 22.069 56.998H53.6726C54.3211 56.996 54.9563 56.8171 55.5079 56.4811C56.0596 56.1451 56.506 55.6651 56.7978 55.0943L68.3156 32.3887C68.8148 31.3573 69.0472 30.2201 68.9921 29.0786C68.9369 27.9372 68.5959 26.8269 67.9995 25.8469ZM51.4955 50.0755H24.7378L19.014 29.3082H62.03L51.4955 50.0755Z" fill="#3B6F3E"/>
<path id="Vector_2" d="M19.5 75C22.5376 75 25 72.7614 25 70C25 67.2386 22.5376 65 19.5 65C16.4624 65 14 67.2386 14 70C14 72.7614 16.4624 75 19.5 75Z" fill="#3B6F3E"/>
<path id="Vector_3" d="M55 75C57.7614 75 60 72.7614 60 70C60 67.2386 57.7614 65 55 65C52.2386 65 50 67.2386 50 70C50 72.7614 52.2386 75 55 75Z" fill="#3B6F3E"/>
</g>
</svg>
