<svg width="84" height="70" viewBox="0 0 84 70" fill="none" xmlns="http://www.w3.org/2000/svg">
<g id="Locate Icon">
<path id="Vector" d="M84 35.5C84 30.9694 83.0947 26.4832 81.3358 22.2975C79.5769 18.1117 76.9988 14.3085 73.7487 11.1048C70.4987 7.90123 66.6403 5.35997 62.3939 3.62619C58.1475 1.8924 53.5963 1.00003 49 1.00003C39.7174 1.00003 30.815 4.63484 24.2513 11.1048C17.6875 17.5749 14 26.3501 14 35.5C14 44.65 17.6875 53.4252 24.2513 59.8952C30.815 66.3652 39.7174 70 49 70C58.2826 70 67.185 66.3652 73.7487 59.8952C80.3125 53.4252 84 44.65 84 35.5ZM76.755 32.05H66.5C65.9228 23.9361 63.1024 16.1329 58.345 9.48703C63.2326 11.1981 67.542 14.2138 70.7927 18.1977C74.0434 22.1817 76.1075 26.9774 76.755 32.05ZM38.78 38.95H59.5C58.6043 47.4735 54.9187 55.4782 49 61.7545C43.0852 55.5044 39.4842 47.4691 38.78 38.95ZM38.78 32.05C39.5951 23.5693 43.1816 15.5788 49 9.28003C54.9665 15.5112 58.6604 23.5218 59.5 32.05H38.78ZM40.04 9.38353C35.2574 16.0663 32.3918 23.8967 31.745 32.05H21.245C21.9062 26.9147 24.0191 22.0662 27.3426 18.0581C30.666 14.0501 35.066 11.0441 40.04 9.38353ZM21.245 38.95H31.745C32.3214 47.0964 35.1676 54.9279 39.97 61.582C35.0139 59.9133 30.632 56.9079 27.3219 52.9073C24.0119 48.9066 21.9066 44.0711 21.245 38.95ZM58.17 61.5475C62.9594 54.8914 65.8373 47.0843 66.5 38.95H76.825C76.1631 44.0569 74.0653 48.8794 70.7687 52.8727C67.4722 56.866 63.1082 59.8708 58.17 61.5475Z" fill="#3B6F3E"/>
</g>
</svg>
