<svg width="66" height="66" viewBox="0 0 66 66" fill="none" xmlns="http://www.w3.org/2000/svg">
<g id="Wellness Icon">
<path id="Vector" d="M24.2899 4C9.7971 4 4 9.7971 4 24.2899V41.6812C4 56.1739 9.7971 61.971 24.2899 61.971H41.6812C56.1739 61.971 61.971 56.1739 61.971 41.6812V24.2899C61.971 9.7971 56.1739 4 41.6812 4H35.8841" stroke="#3B6F3E" stroke-width="7" stroke-linecap="round" stroke-linejoin="round"/>
<path id="Vector_2" d="M4 35.0148L21.3913 34.9568C23.5652 34.9568 26 36.609 26.8116 38.638L30.1159 46.9858C30.8696 48.8699 32.058 48.8699 32.8116 46.9858L39.4493 30.1452C40.087 28.522 41.2754 28.4641 42.087 30.0003L45.1014 35.7104C46 37.4206 48.3188 38.8119 50.2319 38.8119H62" stroke="#3B6F3E" stroke-width="7" stroke-linecap="round" stroke-linejoin="round"/>
</g>
</svg>
